<svg id="Layer_1" data-name="Layer 1" xmlns="http://www.w3.org/2000/svg" viewBox="0 0 407.28 249.8"><defs><style>.cls-1{fill:#fff;}</style></defs><title>logo_svg</title><path class="cls-1" d="M287.24,94.85c.05,1,.09,2,.14,3.08-2.24.34-16.84.09-19,.49-2.61.48-5.22,1.06-7.82,1.59-4.1.84-8.19,1.69-12.29,2.46a4.9,4.9,0,0,1-1.79-.31c-2.82-.57-5.62-1.27-8.44-1.67-1.25-.18-2.54.37-3.81.39-2.45.05-4.89-.1-7.34-.07-3.54,0-16.38-.3-19.91-.12a15.5,15.5,0,0,1-6.65-.91c-2.62-1-14.63-.83-17.3-.74s-11.81-.17-14.61-.21-5.59-.23-8.39-.27c-.74,0-1-.47-1-1.82,0-1.1-.09-2.2-.11-3.3,0-1.52.23-2,1.05-2.07,1.73-.06,3.46-.13,5.19-.13,4.23,0,14.68.26,18.91.34,3.24,0,15.78.73,19,.72,3.07,0,15.46.25,18.53,0a82.05,82.05,0,0,1,14,0c3.32.28,6.65.51,10,.59a4,4,0,0,1,2.31.77c1.8,1.27,3.77.89,5.64,1.39a12.79,12.79,0,0,0,6.49-.29c4.17-1,20.75-.74,24.92-.77a7.09,7.09,0,0,1,2.31.9" transform="translate(-1.86 -3.07)"/><path class="cls-1" d="M115,28.41c1.73-.19,3.27-.4,4.82-.51,1.74-.12,22.13-.44,23.85-.17a55.65,55.65,0,0,1,7.46,1.93c4.95,1.51,22.32,2.64,27.34,1.48,3.07-.71,6.14-.07,9.2.6a24.47,24.47,0,0,0,4.22.85c2.28.07,7.11-.24,12.45-.59,3.92-.26,7.85-.55,11.77-.46,5.18.11,29-1.19,34.15-1.15,4.79,0,15.8-1,20.59-.88,4.63.07,9.27-1.2,13.9-1.13.65,0,1-.36,1-1.23,0-1.12-.07-2.23,0-3.35s-.31-1.27-1-1.32c-10-.7-26.23.14-36.28-1.49-4.8-.78-28.27-.16-33-2.31a2.52,2.52,0,0,1-1-.86,12,12,0,0,1-.79-1.73,3.87,3.87,0,0,1,1.17-.61c5.27-.51,28.94-2.14,32.31-2.49s6.93-.7,10.4-1c2.24-.21,10.69-.41,12.92-.61s11-.42,13.34-.59c.52,0,.78-.5.87-1.48.16-1.61.33-3.21.5-4.82.12-1.22,0-1.41-.61-1.38-1.48.08-9.18.16-10.66.23l-7.64.39c-3.29.17-12.78.35-16.07.52-2.51.12-13.34-1.17-17.26-1.09-5,.11-19.37.24-24.4.15-5.93-.11-12,1.63-17.94,1.58-6.37-.06-12.75,0-19.12.34-7.71.48-15.41.71-23.12,1.36-3.37.28-6.75.83-10.14.1a3.54,3.54,0,0,0-1.52,0c-1.1.25-1.53,2.11-.86,3.53a19,19,0,0,0,1.06,2.17c.3.46.74.94,1.12.94,2.07,0,4.14-.12,6.21-.25,3.91-.23,20.24-.71,24.16.45a19.49,19.49,0,0,0,6.56.94c6.69-.33,1-.24,7.63-.75a6.67,6.67,0,0,1,1.61,0c5.72.92,11.51.25,17.13,2.17a1.91,1.91,0,0,1,.9.49c.3.33.32.72.57,1.15a1.31,1.31,0,0,1-.64,1.19,33.25,33.25,0,0,1-5,1.75c-1.21.31-3.88.74-4.78.87q-12.91,1.24-25.82,2.21c-3.07.23-18.59-.11-21.66.08-3.68.23-26,.74-29.75,1.14,0,0-.88.61-.84,1.38a16.36,16.36,0,0,0,.21,1.68,1,1,0,0,0,.46.64" transform="translate(-1.86 -3.07)"/><path class="cls-1" d="M180.25,37c8.19.34,16.39.54,24.59.95,7.5.37,33.63.49,41.13.09,6-.31,18.29-.34,24.33-.5,5.64-.15,19,.91,24.67.78,1.4,0,1.92-.26,1.65,3.39-.31,4.12,0,3.59-2.17,3.89-5.12.72-18,0-23.13.61-5.5.64-17.21,1.27-22.71,1.93a3.34,3.34,0,0,0-1,.55v.64a3.33,3.33,0,0,0,1,.47c4.65.25,15.52.5,20.17.7,6.8.29,5,.44,11.75.71,1,0,1.07.25,1,2.06,0,1.2-.1,2.39-.12,3.58,0,.87-.23,1.31-.65,1.4a4.45,4.45,0,0,1-.88.13c-12.79.31-23.17.83-36,1-7.68.09-34-.22-41.67-.35a177.33,177.33,0,0,0-25.62,1.72c-1.83.26-3.67.53-5.5.83-.29,0-.56.27-.87.69.18.18.34.47.52.54,3.75,1.51,2,1.42,4.37,2.22,1.22,1.11.45,1.47,2.39,1.76A32.09,32.09,0,0,0,188,66.63c.44-.11,3.26-.12,3.72-.11,2.65,0,5.31,0,8,.06a3.29,3.29,0,0,0,.7,0c.34-.06,2.16.07,2.75,0,7.74-.22,15.22-.75,23-.82,3.31,0,15.94.54,19.25.86,4,.39,14.3.78,18.34,1.21,2.86.31,2.62.68,5.48,1,.69.09.8.38.78,2,0,.61-.06,1.23-.08,1.84-.13,3.68-.18,3.2-1.61,3.18-9.11-.1-30.64-.34-39.74-.33-7.64,0-15,.42-22.64.59a3.94,3.94,0,0,0-1,.3l0,.68c.34.22.68.58,1,.64,5.07.92,19.1,2,23.85,2.65,5.11.74,19.54,1.44,24.65,2.16,4.24.61,14.69,1.23,18.94,1.84l4.82.68c.66.09.8.39.74,1.63,0,.91-.11,1.81-.15,2.72s-.3,1.41-.82,1.36c-1.9-.18-3.8-.31-5.7-.47-4.67-.41-15.55-.81-20.22-1.23-3.53-.32-16.37-.67-19.9-1-4.81-.41-18.74.87-23.88.6-6.48-.35-13-.42-19.44-.51-6.65-.09-11.07-.08-16.41-.08-2.09,0-3.32,0-7.31-.14-1.92-.08-16.27-.85-18.19-1.35-1.74-.47-3.49-1-5.23-1.52-.29-.09-.79-.42-.81-.81a33.73,33.73,0,0,1,.08-4.14c0-.3.36-.63.55-.6,1.1.15,2.2.41,3.3.63,2,.37,4,1.18,5.95,0,2.11-1.21,16.64-.38,18.74-.94a73.75,73.75,0,0,1,8.45-.78c4.79-.34,12.14,0,17.24-.37.29,0,.58-.28.87-.42,0-.18,0-.36,0-.54-.22-.14-.45-.37-.68-.4-2.76-.38-8.33-1.54-12-1.93-2-1-2.45-2.41-4.54-3.39a26.29,26.29,0,0,0-9.92.24c-4.87,1-25.28,1.09-30.16.72-.39,0-.72,0-.75-1.28,0-2.15.05-2.79.65-3,1.86-.83,1.83-1.22,3.7-2a26.86,26.86,0,0,1,4.84-.84c.46,0,18.12-1.2,18.58-1.31.23-.06.46-1,.69-1.5-.21-.15-.41-.38-.63-.42-3.24-.64-18.9-1.26-22.14-1.88-.69-.14-20.27,1.08-20.28-.48,0-3.79-.85-5.27,1.08-5.39s14.72-.47,16.65-.49c3.13,0,6.26.1,9.4.17,1.72,0,15.85.11,17.56-.76.72-.37.42-.91,8.73-1.57,6.92-.55,13.84-1,20.77-1.35,5.81-.33,11.63-.55,17.44-.81,1.07,0,11.45-.06,12.52-.1.23,0,.47.08.68,0a4.75,4.75,0,0,0,.77-.78c-.26-.25-.52-.69-.79-.72-4-.48-17.34-.93-21.35-1.34-2.86-.3-5.72-.71-8.58-.77-4.15-.09-8.31,0-12.47.18-6,.2-12,.42-18.05.78-8.08.48-20.59,0-22,.14-6.53.49-19.5.18-21.18.25-1.15.09-1.2.35-1.19-1.87,0-3.09,0-3.14,1.61-3.45.84-.17,1.67-.39,2.5-.61.22-.06,12.79-.22,13.07-.35,1.78-.84,4.62-1.53,6-2.16,5-1.27,20.45-1.21,25.37-1.21Z" transform="translate(-1.86 -3.07)"/><path class="cls-1" d="M122.72,193.16V163.73a9,9,0,0,1,.6-3.42h-7.65a18.29,18.29,0,0,1,3.54,10.62v24.26a.2.2,0,0,1-.37.12,46.81,46.81,0,0,0-3.07-4.25q-9.8-11.52-20.66-22l-2.35-2.28-6-6.44h-8A7.6,7.6,0,0,1,80.1,165v32.85a7.29,7.29,0,0,1-1.54,5h8.73l-.18-.1a18.23,18.23,0,0,1-3.48-10.52V167.35a.39.39,0,0,1,.32-.43,1.07,1.07,0,0,1,.76.12l4.92,4.83c6.12,6,12.15,12.27,17.77,18.76l10.38,12.16h5.41a12.24,12.24,0,0,1-.46-3.42v-6.21Z" transform="translate(-1.86 -3.07)"/><path class="cls-1" d="M269.87,193.16V163.73a9,9,0,0,1,.59-3.42h-7.65a18.29,18.29,0,0,1,3.54,10.62v24.26a.2.2,0,0,1-.37.12,44.86,44.86,0,0,0-3.07-4.25q-9.78-11.52-20.66-22l-2.35-2.28L234,160.31h-8a7.6,7.6,0,0,1,1.29,4.66v32.85a7.33,7.33,0,0,1-1.53,5h8.73c-2.48-1.08-3.68-3.19-3.68-6.52V167.35a.4.4,0,0,1,.32-.43,1.07,1.07,0,0,1,.76.12l4.93,4.83c6.12,6,12.15,12.27,17.76,18.76l10.38,12.16h5.42a11.88,11.88,0,0,1-.46-3.42v-6.21Z" transform="translate(-1.86 -3.07)"/><path class="cls-1" d="M40.65,181.94l10,16.7L27.76,160.31H21.17a9.44,9.44,0,0,1,0,9.58l-6.6,11.24L5.5,196.59l-3.64,6.2H9.25c-1.23-4,1.75-8.46,2.2-9.15H33.64c9.2,0,12.65,9.15,12.65,9.15h6.8l-2.48-4.15ZM14.54,191a1.14,1.14,0,0,1-1-1.72l11.61-19.73a.86.86,0,0,1,1.48,0L39.33,191Z" transform="translate(-1.86 -3.07)"/><path class="cls-1" d="M187.69,181.94l10,16.7L174.8,160.31h-6.59a9.44,9.44,0,0,1,0,9.58l-6.6,11.24-9.08,15.45-3.64,6.2h7.39c-1.23-4,1.75-8.46,2.2-9.15h22.19c9.2,0,12.65,9.15,12.65,9.15h6.8l-2.48-4.15ZM161.58,191a1.14,1.14,0,0,1-1-1.72l11.61-19.73a.86.86,0,0,1,1.48,0L186.37,191Z" transform="translate(-1.86 -3.07)"/><path class="cls-1" d="M406.65,198.64l-9.95-16.7,9.95,16.7L383.8,160.31h-6.59a9.44,9.44,0,0,1,0,9.58l-6.6,11.24-9.08,15.45-3.65,6.2h7.39c-1.23-4,1.75-8.46,2.21-9.15h22.18c9.21,0,12.66,9.15,12.66,9.15h6.79ZM370.58,191a1.14,1.14,0,0,1-1-1.72l11.6-19.73a.86.86,0,0,1,1.48,0L395.38,191Z" transform="translate(-1.86 -3.07)"/><path class="cls-1" d="M337.75,160.31H298.58a30.33,30.33,0,0,1-3.22-.11V168s6.47-4.92,8.73-4.92h9.85a2.77,2.77,0,0,1,2.77,2.77v30.59a20.07,20.07,0,0,1-1.1,6.37H324a19.48,19.48,0,0,1-1.13-6.37V165.83a2.77,2.77,0,0,1,2.77-2.77h9.85c2.26,0,8.73,4.92,8.73,4.92v-7.8a29.73,29.73,0,0,1-3.37.13Z" transform="translate(-1.86 -3.07)"/><path class="cls-1" d="M119.21,236.14h-15a11.08,11.08,0,0,1-1.24,0v3s2.49-1.89,3.35-1.89h3.78a1.07,1.07,0,0,1,1.07,1.07V250a7.61,7.61,0,0,1-.43,2.44h3.23a7.34,7.34,0,0,1-.44-2.44V238.26a1.07,1.07,0,0,1,1.06-1.07h3.78c.87,0,3.36,1.89,3.36,1.89v-3a12.14,12.14,0,0,1-1.3,0Z" transform="translate(-1.86 -3.07)"/><polygon class="cls-1" points="142.97 233.14 142.97 233.02 142.97 233.14 142.97 233.14"/><path class="cls-1" d="M189.37,236.08h-.17a.26.26,0,0,0-.25.26v.16a.42.42,0,0,1,.42-.42" transform="translate(-1.86 -3.07)"/><path class="cls-1" d="M161.49,236.08h-.17a.26.26,0,0,0-.25.26v.16a.42.42,0,0,1,.42-.42" transform="translate(-1.86 -3.07)"/><path class="cls-1" d="M169.27,246.61a3.46,3.46,0,0,0-1.83-1.24.15.15,0,0,1,0-.3c2.68-.34,4.8-1.67,4.8-4.32,0-3.49-2.76-4.66-7.33-4.66h-6.5a3.33,3.33,0,0,1,.52,2v.07h0a3.24,3.24,0,0,1,0,.45V249.2h0v.94a7,7,0,0,1-.39,2.23h2.9a6.71,6.71,0,0,1-.4-2.23v-4.86h2.79a2.94,2.94,0,0,1,2.81,1.25s3.94,4.36,4.45,5.85h2.6a16.45,16.45,0,0,0-1.58-2.14Zm-4.48-2.33h-3.72v-6.89a.25.25,0,0,1,.25-.25h3.6c3.34,0,5,.93,5,3.61s-1.67,3.53-5.08,3.53" transform="translate(-1.86 -3.07)"/><path class="cls-1" d="M200,250.24l-2.87-3.63a3.46,3.46,0,0,0-1.83-1.24.15.15,0,0,1,0-.3c2.68-.34,4.8-1.67,4.8-4.32,0-3.49-2.76-4.66-7.33-4.66h-6.5a3.26,3.26,0,0,1,.51,2,.15.15,0,0,1,0,.07h0a3.24,3.24,0,0,1,0,.45V249.2h0v.94a7,7,0,0,1-.39,2.23h2.9a6.71,6.71,0,0,1-.4-2.23v-4.86h2.79a2.94,2.94,0,0,1,2.81,1.25s3.94,4.36,4.45,5.85h2.6a17.46,17.46,0,0,0-1.58-2.14m-7.36-6H189v-6.89a.25.25,0,0,1,.25-.25h3.6c3.34,0,4.95.93,4.95,3.61s-1.67,3.53-5.09,3.53" transform="translate(-1.86 -3.07)"/><path class="cls-1" d="M255.63,238.89V238a.6.6,0,0,0-.42-.57l-2.25-.73h0a12.34,12.34,0,0,0-3.46-.56c-5.17,0-9.21,3.45-9.21,8.6,0,4.91,4,8.17,9.1,8.17a7.64,7.64,0,0,0,7.84-5.69c-1.61,2.36-3.52,4-7,4-4.59,0-7.74-2.85-7.74-7.22s2.93-6.79,7-6.79a6.65,6.65,0,0,1,4.66,1.67,7.65,7.65,0,0,1,.76.83c.46.68.25.32.71,1" transform="translate(-1.86 -3.07)"/><path class="cls-1" d="M282.19,249.5s-2.47,1.86-3.33,1.86h-6.65a.36.36,0,0,1-.36-.36v-6.24h4.48c1.07,0,1.48.48,2.57,1.23v-3.51c-1.09.75-1.5,1.23-2.57,1.23h-4.48v-6.17a.36.36,0,0,1,.36-.36H278a1.37,1.37,0,0,1,.44.09,11.32,11.32,0,0,1,2,1.11c.54.37.95.68.95.68v-3a9.69,9.69,0,0,1-1.3.06h-10.8a3.36,3.36,0,0,1,.52,2.05c0,.14,0,.29,0,.45v11.28c0,.16,0,.31,0,.45h0v0a3.31,3.31,0,0,1-.51,2H280.9a11.94,11.94,0,0,1,1.29.05Z" transform="translate(-1.86 -3.07)"/><path class="cls-1" d="M226.3,244.38l3.83,6.41-8.77-14.71h-2.53a3.6,3.6,0,0,1,0,3.67l-2.53,4.32L212.82,250h0l-1.4,2.38h2.83c-.47-1.54.67-3.25.85-3.51h8.51c3.54,0,4.86,3.51,4.86,3.51h2.61l-1-1.6Zm-10,3.49a.44.44,0,0,1-.38-.66l4.46-7.57a.33.33,0,0,1,.57,0l4.87,8.23Z" transform="translate(-1.86 -3.07)"/><path class="cls-1" d="M303.4,243.6l-3.28-.84c-2.43-.63-3.58-1.44-3.58-2.94s1.28-2.68,3.86-2.72h.13a8.65,8.65,0,0,1,1.57.14l.12,0a6.24,6.24,0,0,1,3.06,1.52,6.1,6.1,0,0,1,.75.83c.46.67.26.32.71,1v-2.68a.67.67,0,0,0-.41-.54,12.57,12.57,0,0,0-5.8-1.31h-.13c-2.7,0-5.61,1.48-5.61,4.19,0,2.25,1.62,3.5,4.51,4.26l3.5.91c2.68.69,3.39,1.89,3.39,3.26,0,2-1.86,3.15-4.48,3.14-4,0-5.46-1.68-5.46-1.68a7.58,7.58,0,0,1-.75-.83c-.46-.68-.26-.32-.71-1V251a.67.67,0,0,0,.41.54,13,13,0,0,0,5.8,1.3c.3,0,.92,0,1.23,0,3-.13,5.82-1.75,5.82-4.74,0-2.38-1.34-3.68-4.65-4.51" transform="translate(-1.86 -3.07)"/><path class="cls-1" d="M145.68,249.5s-2.46,1.86-3.33,1.86h-6.64a.36.36,0,0,1-.36-.36v-6.24h4.48c1.06,0,1.48.48,2.57,1.23v-3.51c-1.09.75-1.51,1.23-2.57,1.23h-4.48v-6.17a.36.36,0,0,1,.36-.36h5.77a1.27,1.27,0,0,1,.43.09,11.39,11.39,0,0,1,2,1.11c.54.37,1,.68,1,.68V239l0-2.87a9.62,9.62,0,0,1-1.29.06h-10.8a3.43,3.43,0,0,1,.52,2.05v11.73c0,.16,0,.31,0,.45h0v0a3.31,3.31,0,0,1-.52,2h11.69a12.14,12.14,0,0,1,1.3.05Z" transform="translate(-1.86 -3.07)"/><rect class="cls-1" x="4.39" y="208.37" width="42.59" height="3.69"/></svg>