<?xml version="1.0" encoding="UTF-8"?>
<svg xmlns="http://www.w3.org/2000/svg" xmlns:xlink="http://www.w3.org/1999/xlink" viewBox="0 0 120 120" width="120px" height="120px">
<g id="surface89250011">
<path style=" stroke:none;fill-rule:nonzero;fill:rgb(100%,100%,100%);fill-opacity:1;" d="M 96 16 L 24 16 C 19.578125 16 16 19.578125 16 24 L 16 96 C 16 100.421875 19.578125 104 24 104 L 96 104 C 100.421875 104 104 100.421875 104 96 L 104 24 C 104 19.578125 100.421875 16 96 16 Z M 43.816406 88 L 32.015625 88 L 32.015625 50.03125 L 43.816406 50.03125 Z M 37.796875 44.605469 C 33.992188 44.605469 30.914062 41.519531 30.914062 37.722656 C 30.914062 33.929688 33.996094 30.847656 37.796875 30.847656 C 41.589844 30.847656 44.671875 33.933594 44.671875 37.722656 C 44.671875 41.519531 41.589844 44.605469 37.796875 44.605469 Z M 88.015625 88 L 76.222656 88 L 76.222656 69.535156 C 76.222656 65.132812 76.144531 59.46875 70.09375 59.46875 C 63.953125 59.46875 63.007812 64.265625 63.007812 69.214844 L 63.007812 88 L 51.214844 88 L 51.214844 50.03125 L 62.535156 50.03125 L 62.535156 55.21875 L 62.695312 55.21875 C 64.273438 52.234375 68.121094 49.089844 73.859375 49.089844 C 85.808594 49.089844 88.015625 56.953125 88.015625 67.175781 Z M 88.015625 88 "/>
</g>
</svg>
