<?xml version="1.0" encoding="UTF-8"?>
<svg xmlns="http://www.w3.org/2000/svg" xmlns:xlink="http://www.w3.org/1999/xlink" viewBox="0 0 90 90" width="90px" height="90px">
<g id="surface127764392">
<path style=" stroke:none;fill-rule:nonzero;fill:rgb(100%,100%,100%);fill-opacity:1;" d="M 45 12 C 32.441406 12 16.140625 15.144531 16.140625 15.144531 L 16.101562 15.191406 C 10.382812 16.109375 6 21.023438 6 27 L 6 63.003906 C 6.011719 68.902344 10.304688 73.917969 16.128906 74.835938 L 16.140625 74.851562 C 16.140625 74.851562 32.441406 78.003906 45 78.003906 C 57.558594 78.003906 73.859375 74.851562 73.859375 74.851562 L 73.863281 74.847656 C 79.695312 73.929688 83.992188 68.910156 84 63.003906 L 84 27 C 83.992188 21.101562 79.695312 16.082031 73.867188 15.164062 L 73.859375 15.144531 C 73.859375 15.144531 57.558594 12 45 12 Z M 36 31.195312 L 60 45 L 36 58.804688 Z M 36 31.195312 "/>
</g>
</svg>
