<svg xmlns="http://www.w3.org/2000/svg" xmlns:xlink="http://www.w3.org/1999/xlink" width="60" height="60" viewBox="0 0 60 60">
  <defs>
    <clipPath id="clip-path">
      <rect id="Rectangle_1176" data-name="Rectangle 1176" width="60" height="60" transform="translate(7116 -336)" fill="#003a71" opacity="0"/>
    </clipPath>
  </defs>
  <g id="Group_1637" data-name="Group 1637" transform="translate(-7127 382)">
    <g id="Layer_1" transform="translate(7112.1 -398.2)">
      <g id="Group_1636" data-name="Group 1636" transform="translate(24.9 26.2)">
        <g id="Group_1635" data-name="Group 1635">
          <path id="Path_1133" data-name="Path 1133" d="M64.056,49.408a.852.852,0,0,0,.844-.849V45.226a.852.852,0,0,0-.844-.849h-.844L57.968,39.1H52.636v-3.87h.578a.654.654,0,0,0,.649-.652V32a.654.654,0,0,0-.649-.652H52.165a7.7,7.7,0,0,0-14.53,0H36.586a.654.654,0,0,0-.649.652v2.583a.654.654,0,0,0,.649.652h.578V39.1H31.832l-5.243,5.273h-.844a.852.852,0,0,0-.844.849v3.333a.852.852,0,0,0,.844.849h.5V62.4h-.56a.673.673,0,0,0-.667.67V65.53a.673.673,0,0,0,.667.67H64.118a.673.673,0,0,0,.667-.67V63.072a.673.673,0,0,0-.667-.67h-.551V49.408Zm-.364-3.825v2.609H54.538V46.745h1.689a.852.852,0,0,0,.844-.849v-.313h6.621ZM53.329,48.8V59.784H51.952V46.745h1.377Zm1.262,13.6h-3.91V60.99h3.91Zm-7.767,0H42.932V55.137a1.946,1.946,0,1,1,3.892,0ZM44.878,51.964a3.164,3.164,0,0,0-3.155,3.172V62.4h-1.4V60.624a.852.852,0,0,0-.844-.849h-.418V46.745H50.743V59.775h-.418a.852.852,0,0,0-.844.849V62.4H48.033V55.137A3.164,3.164,0,0,0,44.878,51.964Zm-8.4-2.556V46.745h1.377V59.775H36.48Zm-2.533-3.87V43H55.862v2.538ZM39.066,60.99h.062V62.4h-3.91V60.99h3.848Zm18.4-20.679,4.035,4.057H57.062V42.625a.852.852,0,0,0-.844-.849H52.636V40.3h4.834ZM44.9,27.415a6.541,6.541,0,0,1,5.972,3.941H38.932A6.541,6.541,0,0,1,44.9,27.415Zm-7.749,5.147H52.663v1.457H37.155Zm14.281,2.663v6.559H38.373V35.226Zm-19.1,5.085h4.826v1.475H33.583a.852.852,0,0,0-.844.849v1.743H28.295Zm-6.221,5.273h6.63V45.9a.852.852,0,0,0,.844.849H35.28v1.448H26.118Zm1.333,3.825H35.28V59.784h-.418a.852.852,0,0,0-.844.849v1.778H27.451Zm36.125,14.2v1.376H26.215V63.608H63.576ZM62.358,62.4H55.8V60.624a.852.852,0,0,0-.844-.849h-.418V49.408h7.829V62.4Z" transform="translate(-24.9 -26.2)" fill="#003a71"/>
        </g>
      </g>
    </g>
  </g>
</svg>
