<svg xmlns="http://www.w3.org/2000/svg" xmlns:xlink="http://www.w3.org/1999/xlink" width="60" height="60" viewBox="0 0 60 60">
  <defs>
    <clipPath id="clip-Artboard_1">
      <rect width="60" height="60"/>
    </clipPath>
  </defs>
  <g id="Artboard_1" data-name="Artboard – 1" clip-path="url(#clip-Artboard_1)">
    <g id="controls" transform="translate(10 10)">
      <g id="Group_1636" data-name="Group 1636">
        <g id="Group_1635" data-name="Group 1635">
          <path id="Path_1130" data-name="Path 1130" d="M6.667,12.018a6.582,6.582,0,0,0,6.457-4.507h25.21A1.591,1.591,0,0,0,40,6.009a1.591,1.591,0,0,0-1.667-1.5H13.123A6.582,6.582,0,0,0,6.667,0C2.985,0,0,2.69,0,6.009S2.985,12.018,6.667,12.018ZM6.667,3a3.181,3.181,0,0,1,3.333,3,3.181,3.181,0,0,1-3.333,3,3.181,3.181,0,0,1-3.333-3A3.181,3.181,0,0,1,6.667,3Z" fill="#003a71"/>
          <path id="Path_1131" data-name="Path 1131" d="M33.333,341.333a6.582,6.582,0,0,0-6.457,4.507H1.667a1.51,1.51,0,1,0,0,3h25.21a6.582,6.582,0,0,0,6.457,4.507c3.682,0,6.667-2.69,6.667-6.009S37.015,341.333,33.333,341.333Zm0,9.013a3.021,3.021,0,1,1,3.333-3A3.181,3.181,0,0,1,33.333,350.346Z" transform="translate(0 -313.351)" fill="#003a71"/>
          <path id="Path_1132" data-name="Path 1132" d="M38.333,175.174H26.457A6.582,6.582,0,0,0,20,170.667a6.582,6.582,0,0,0-6.457,4.507H1.667a1.51,1.51,0,1,0,0,3H13.543A6.582,6.582,0,0,0,20,182.685a6.582,6.582,0,0,0,6.457-4.507H38.333a1.51,1.51,0,1,0,0-3ZM20,179.68a3.021,3.021,0,1,1,0-6.009,3.021,3.021,0,1,1,0,6.009Z" transform="translate(0 -156.676)" fill="#003a71"/>
        </g>
      </g>
    </g>
  </g>
</svg>
