<svg xmlns="http://www.w3.org/2000/svg" xmlns:xlink="http://www.w3.org/1999/xlink" width="60" height="60" viewBox="0 0 60 60">
  <defs>
    <clipPath id="clip-Artboard_1">
      <rect width="60" height="60"/>
    </clipPath>
  </defs>
  <g id="Artboard_1" data-name="Artboard – 1" clip-path="url(#clip-Artboard_1)">
    <g id="tiles" transform="translate(2 -64.667)">
      <g id="Group_1635" data-name="Group 1635" transform="translate(0 74.667)">
        <path id="Path_1130" data-name="Path 1130" d="M55.9,96.01,39.8,86.349l2.009-1.278a1.179,1.179,0,0,0,0-1.986L28.866,74.85a1.179,1.179,0,0,0-1.264,0L14.661,83.086a1.179,1.179,0,0,0,0,1.986l2.009,1.28L.572,96.01a1.176,1.176,0,0,0-.007,2.014L27.623,114.5a1.176,1.176,0,0,0,1.224,0L55.906,98.025A1.177,1.177,0,0,0,55.9,96.01ZM28.235,77.239l10.751,6.84-10.751,6.84-10.751-6.84ZM18.889,87.763,27.6,93.307a1.184,1.184,0,0,0,.633.184,1.171,1.171,0,0,0,.631-.184l8.713-5.546,1.551.932L28.235,95.627l-10.9-6.934ZM3.452,97.022l11.633-6.976,10.96,6.974L15,104.05Zm24.784,15.089-11-6.7,11-7,11,7Zm13.24-8.059L30.426,97.02l10.96-6.974,11.633,6.979Z" transform="translate(0 -74.667)" fill="#003a71"/>
      </g>
    </g>
  </g>
</svg>
